<svg width="35" height="24" viewBox="0 0 35 24" fill="none" xmlns="http://www.w3.org/2000/svg">
<g clip-path="url(#clip0_0_1594)">
<path d="M6.36495 23.8807V22.2922C6.36495 21.6832 5.94476 21.2861 5.22452 21.2861C4.86447 21.2861 4.47434 21.392 4.20423 21.7362C3.99427 21.445 3.69423 21.2861 3.2441 21.2861C2.94392 21.2861 2.64401 21.3655 2.40384 21.6567V21.3391H1.77368V23.8807H2.40384V22.4775C2.40384 22.0275 2.67395 21.8156 3.09414 21.8156C3.51407 21.8156 3.7243 22.0539 3.7243 22.4775V23.8807H4.35446V22.4775C4.35446 22.0275 4.65437 21.8156 5.04449 21.8156C5.46469 21.8156 5.67465 22.0539 5.67465 22.4775V23.8807H6.36495ZM15.6972 21.3391H14.677V20.5713H14.0469V21.3391H13.4767V21.842H14.0467V23.007C14.0467 23.5895 14.3168 23.9336 15.0371 23.9336C15.3072 23.9336 15.6071 23.8543 15.8173 23.7484L15.6372 23.2717C15.4571 23.3776 15.2472 23.4042 15.0971 23.4042C14.797 23.4042 14.677 23.2453 14.677 22.9805V21.842H15.6972V21.3391ZM21.0386 21.286C20.6786 21.286 20.4385 21.445 20.2885 21.6567V21.3391H19.6583V23.8807H20.2885V22.451C20.2885 22.0275 20.4984 21.7892 20.8885 21.7892C21.0086 21.7892 21.1586 21.8157 21.2787 21.8421L21.4587 21.3127C21.3387 21.2861 21.1586 21.2861 21.0386 21.2861V21.286ZM12.9666 21.5509C12.6664 21.3655 12.2463 21.2861 11.7962 21.2861C11.0761 21.2861 10.596 21.6038 10.596 22.1068C10.596 22.5305 10.9561 22.7687 11.5862 22.8482L11.8863 22.8747C12.2164 22.9275 12.3964 23.007 12.3964 23.1394C12.3964 23.3247 12.1564 23.4571 11.7362 23.4571C11.3161 23.4571 10.986 23.3247 10.7759 23.1924L10.4759 23.6159C10.806 23.8277 11.2561 23.9336 11.7061 23.9336C12.5464 23.9336 13.0266 23.5895 13.0266 23.1129C13.0266 22.6628 12.6365 22.4245 12.0362 22.3451L11.7362 22.3186C11.4661 22.2921 11.2561 22.2393 11.2561 22.0804C11.2561 21.8951 11.4661 21.7892 11.7962 21.7892C12.1564 21.7892 12.5164 21.9215 12.6965 22.0009L12.9666 21.5509ZM29.7109 21.2861C29.3507 21.2861 29.1107 21.445 28.9606 21.6567V21.3391H28.3304V23.8807H28.9606V22.451C28.9606 22.0275 29.1707 21.7892 29.5607 21.7892C29.6808 21.7892 29.8309 21.8157 29.9509 21.8421L30.131 21.3127C30.0109 21.2861 29.8309 21.2861 29.7109 21.2861ZM21.6688 22.6099C21.6688 23.3776 22.2689 23.9336 23.1992 23.9336C23.6193 23.9336 23.9193 23.8543 24.2194 23.6425L23.9193 23.1924C23.6793 23.3512 23.4392 23.4306 23.1691 23.4306C22.659 23.4306 22.2989 23.1129 22.2989 22.6099C22.2989 22.1334 22.659 21.8156 23.1691 21.7892C23.4392 21.7892 23.6793 21.8685 23.9193 22.0275L24.2194 21.5774C23.9193 21.3655 23.6193 21.2861 23.1992 21.2861C22.2689 21.2861 21.6688 21.8421 21.6688 22.6099ZM27.4903 22.6099V21.3391H26.8601V21.6567C26.65 21.4186 26.35 21.2861 25.9599 21.2861C25.1497 21.2861 24.5195 21.8421 24.5195 22.6099C24.5195 23.3776 25.1497 23.9336 25.9599 23.9336C26.3799 23.9336 26.6801 23.8013 26.8601 23.563V23.8807H27.4903V22.6099ZM25.1796 22.6099C25.1796 22.1598 25.5097 21.7892 26.0498 21.7892C26.56 21.7892 26.9202 22.1334 26.9202 22.6099C26.9202 23.06 26.56 23.4306 26.0498 23.4306C25.5097 23.404 25.1796 23.06 25.1796 22.6099ZM17.6478 21.2861C16.8075 21.2861 16.2073 21.8156 16.2073 22.6099C16.2073 23.4042 16.8074 23.9336 17.6777 23.9336C18.0978 23.9336 18.518 23.8277 18.8481 23.5895L18.5479 23.1924C18.3079 23.3512 18.0079 23.4571 17.7078 23.4571C17.3177 23.4571 16.9276 23.2983 16.8375 22.8481H18.9681V22.6364C18.9982 21.8156 18.458 21.2861 17.6477 21.2861H17.6478ZM17.6478 21.7626C18.0378 21.7626 18.308 21.9745 18.3679 22.3717H16.8676C16.9276 22.0275 17.1977 21.7626 17.6478 21.7626ZM33.2817 22.6099V20.333H32.6516V21.6567C32.4415 21.4186 32.1414 21.2861 31.7513 21.2861C30.9411 21.2861 30.311 21.8421 30.311 22.6099C30.311 23.3776 30.9411 23.9336 31.7513 23.9336C32.1715 23.9336 32.4716 23.8013 32.6516 23.563V23.8807H33.2817V22.6099ZM30.9712 22.6099C30.9712 22.1598 31.3012 21.7892 31.8414 21.7892C32.3515 21.7892 32.7116 22.1334 32.7116 22.6099C32.7116 23.06 32.3515 23.4306 31.8414 23.4306C31.3012 23.404 30.9712 23.06 30.9712 22.6099ZM9.90573 22.6099V21.3391H9.27558V21.6567C9.06548 21.4186 8.76543 21.2861 8.37531 21.2861C7.56513 21.2861 6.93497 21.8421 6.93497 22.6099C6.93497 23.3776 7.56513 23.9336 8.37531 23.9336C8.79551 23.9336 9.09555 23.8013 9.27558 23.563V23.8807H9.90573V22.6099ZM7.56513 22.6099C7.56513 22.1598 7.89524 21.7892 8.43532 21.7892C8.94546 21.7892 9.30565 22.1334 9.30565 22.6099C9.30565 23.06 8.94546 23.4306 8.43532 23.4306C7.89524 23.404 7.56513 23.06 7.56513 22.6099Z" fill="black"/>
<path d="M12.7563 2.03857H22.2087V17.0236H12.7563V2.03857Z" fill="#FF5F00"/>
<path d="M13.3567 9.53114C13.3567 6.48651 14.977 3.78597 17.4676 2.03855C15.6373 0.767759 13.3267 0 10.8061 0C4.83434 0 0.00317383 4.26247 0.00317383 9.53114C0.00317383 14.7997 4.83434 19.0623 10.806 19.0623C13.3266 19.0623 15.6371 18.2945 17.4676 17.0236C14.977 15.3027 13.3567 12.5758 13.3567 9.53114Z" fill="#EB001B"/>
<path d="M34.962 9.53114C34.962 14.7997 30.1308 19.0623 24.1592 19.0623C21.6386 19.0623 19.328 18.2945 17.4976 17.0236C20.0182 15.2763 21.6086 12.5758 21.6086 9.53114C21.6086 6.48651 19.9881 3.78597 17.4976 2.03855C19.3279 0.767759 21.6386 0 24.1592 0C30.1308 0 34.9621 4.28901 34.9621 9.53114H34.962Z" fill="#F79E1B"/>
</g>
<defs>
<clipPath id="clip0_0_1594">
<rect width="35" height="24" fill="white"/>
</clipPath>
</defs>
</svg>
