<svg width="24" height="24" viewBox="0 0 24 24" fill="none" xmlns="http://www.w3.org/2000/svg">
<g clip-path="url(#clip0_0_1601)">
<path d="M20.3586 1.86808C19.0524 0.605932 16.6913 0.0648193 13.6707 0.0648193H4.90421C4.60536 0.0648287 4.31631 0.15522 4.08903 0.319742C3.86176 0.484263 3.71116 0.712123 3.66432 0.962356L0.014111 20.5889C-0.0584433 20.9759 0.295048 21.3264 0.757746 21.3264H6.16988L7.52911 14.0174L7.48692 14.2463C7.58376 13.7296 8.10495 13.3486 8.72213 13.3486H11.294C16.3463 13.3486 20.3024 11.6088 21.458 6.57605C21.4923 6.4272 21.5221 6.28233 21.5477 6.14079C21.4019 6.07531 21.4019 6.07531 21.5477 6.14079C21.8919 4.28063 21.5454 3.01444 20.3586 1.86808Z" fill="#27346A"/>
<path d="M9.6 5.4707C9.74796 5.41097 9.90979 5.38002 10.0737 5.3801H16.9464C17.7603 5.3801 18.5194 5.425 19.2131 5.51965C19.4072 5.54589 19.6003 5.57722 19.7921 5.61359C20.064 5.66445 20.3327 5.7267 20.5973 5.8001C20.9383 5.89666 21.2559 6.00911 21.5478 6.14079C21.8919 4.27992 21.5454 3.01444 20.3586 1.86808C19.0516 0.605932 16.6913 0.0648193 13.6707 0.0648193H4.90347C4.28619 0.0648193 3.76106 0.445799 3.66432 0.962356L0.0141115 20.5882C-0.0584428 20.9758 0.295049 21.3258 0.756996 21.3258H6.16989L8.98985 6.16527C9.01758 6.01625 9.08759 5.87518 9.19388 5.75419C9.30017 5.6332 9.43954 5.53591 9.6 5.4707Z" fill="#27346A"/>
<path d="M21.458 6.57613C20.3024 11.6082 16.3464 13.3487 11.294 13.3487H8.72139C8.10421 13.3487 7.58293 13.7297 7.48703 14.2464L5.79606 23.3342C5.73288 23.6729 6.04185 23.9798 6.44605 23.9798H11.0084C11.2697 23.9797 11.5224 23.9006 11.7211 23.7567C11.9198 23.6128 12.0514 23.4135 12.0923 23.1946L12.1367 22.9975L12.9966 18.3775L13.052 18.1221C13.0928 17.9033 13.2244 17.704 13.4231 17.5601C13.6217 17.4161 13.8745 17.337 14.1358 17.3369H14.8186C19.2381 17.3369 22.6987 15.8148 23.7099 11.4124C24.1321 9.57271 23.9136 8.03671 22.797 6.95782C22.4583 6.63104 22.0377 6.36116 21.5478 6.14087C21.5212 6.28312 21.4924 6.42728 21.458 6.57613Z" fill="#2790C3"/>
<path d="M20.3383 5.73198C20.1581 5.68737 19.9762 5.64788 19.7929 5.61357C19.601 5.5778 19.4079 5.54668 19.2139 5.52027C18.5195 5.42499 17.7609 5.38001 16.9464 5.38001H10.0744C9.91041 5.37969 9.74846 5.41091 9.60074 5.47132C9.4401 5.53633 9.30058 5.63356 9.19424 5.75458C9.08791 5.87561 9.01798 6.01679 8.9905 6.16589L7.52985 14.0174L7.48767 14.2463C7.58375 13.7296 8.10494 13.3486 8.72222 13.3486H11.2948C16.3472 13.3486 20.3032 11.6088 21.4588 6.57603C21.4932 6.42719 21.5221 6.28295 21.5486 6.14078C21.2559 6.00981 20.9392 5.89664 20.5981 5.80072C20.512 5.77653 20.4254 5.75361 20.3384 5.73198" fill="#1F264F"/>
</g>
<defs>
<clipPath id="clip0_0_1601">
<rect width="24" height="24" fill="white"/>
</clipPath>
</defs>
</svg>
