<svg width="25" height="24" viewBox="0 0 25 24" fill="none" xmlns="http://www.w3.org/2000/svg">
<path fill-rule="evenodd" clip-rule="evenodd" d="M5.16807 5.27057H1.07143C0.479695 5.27057 0 5.7043 0 6.23933V10.1144C0 10.6494 0.479695 11.0832 1.07143 11.0832H1.42857V23.0312C1.42857 23.5663 1.90827 24 2.5 24H22.5C23.0917 24 23.5714 23.5663 23.5714 23.0312V11.0832H23.9286C24.5203 11.0832 25 10.6494 25 10.1144V6.23933C25 5.7043 24.5203 5.27057 23.9286 5.27057H19.8318C20.4172 4.90631 20.936 4.44857 21.2151 3.87417C21.4377 3.41628 21.4952 2.90711 21.3348 2.38594C21.1803 1.8837 20.844 1.43459 20.4003 1.03342C19.4747 0.196472 18.4017 -0.134216 17.2956 0.0490598C16.2743 0.218286 15.3936 0.799711 14.6887 1.43708C13.841 2.20362 13.0942 3.19256 12.5 4.1239C11.9058 3.19256 11.159 2.20361 10.3112 1.43707C9.60628 0.799702 8.72562 0.218283 7.70427 0.0490592C6.59813 -0.134213 5.52516 0.196467 4.59951 1.03342C4.15582 1.4346 3.81953 1.8837 3.66502 2.38595C3.50467 2.90713 3.56217 3.4163 3.78473 3.87419C4.06393 4.44858 4.58272 4.90632 5.16807 5.27057ZM14.392 5.03624C15.6691 4.81501 17.0044 4.45974 17.9962 4.00348C18.7925 3.63715 19.1523 3.30261 19.2534 3.09465C19.2875 3.02444 19.2914 2.97354 19.2704 2.90521C19.2435 2.81795 19.1557 2.64812 18.8851 2.40346C18.3822 1.94872 17.9968 1.90266 17.6818 1.95485C17.2821 2.02109 16.7788 2.28733 16.204 2.8071C15.5339 3.41299 14.9101 4.23098 14.392 5.03624ZM10.608 5.03624C10.0899 4.23099 9.46607 3.413 8.79597 2.80711C8.22112 2.28734 7.71783 2.02109 7.31804 1.95485C7.00304 1.90266 6.61767 1.94872 6.11474 2.40346C5.84415 2.64812 5.75633 2.81795 5.72949 2.9052C5.70847 2.97352 5.71236 3.02442 5.74649 3.09463C5.84758 3.30259 6.20735 3.63714 7.0037 4.00348C7.99552 4.45974 9.33091 4.81501 10.608 5.03624ZM22.8571 9.14562V7.2081H2.14286V9.14562H22.8571ZM3.57143 11.0832H21.4286V22.0625H3.57143V11.0832Z" fill="#47E310"/>
<path d="M5.16807 5.77057C5.39131 5.77057 5.5875 5.62259 5.64883 5.40794C5.71017 5.1933 5.62178 4.964 5.43224 4.84605C4.88441 4.50515 4.45497 4.10933 4.23443 3.65561C4.06357 3.3041 4.0222 2.92535 4.14291 2.53297C4.26216 2.14535 4.53168 1.76884 4.93485 1.40429C5.75833 0.659724 6.68076 0.386294 7.62255 0.542334C8.5101 0.689391 9.3052 1.20155 9.97586 1.80794C10.778 2.53323 11.4972 3.48173 12.0785 4.39283C12.1703 4.53677 12.3292 4.6239 12.5 4.6239C12.6707 4.6239 12.8297 4.53677 12.9215 4.39282C13.5028 3.48173 14.2219 2.53324 15.0241 1.80795C15.6947 1.20156 16.4898 0.689393 17.3773 0.542335C18.3191 0.386293 19.2415 0.659727 20.065 1.40429C20.4682 1.76884 20.7377 2.14535 20.8569 2.53297L21.3348 2.38594L20.8569 2.53297C20.9777 2.92534 20.9363 3.30409 20.7654 3.6556L21.2151 3.87417L20.7654 3.6556C20.5449 4.10933 20.1155 4.50515 19.5677 4.84606C19.3781 4.964 19.2897 5.1933 19.3511 5.40794C19.4124 5.62259 19.6086 5.77057 19.8318 5.77057H23.9286C24.2927 5.77057 24.5 6.02663 24.5 6.23933V10.1144C24.5 10.3271 24.2927 10.5832 23.9286 10.5832H23.5714C23.2953 10.5832 23.0714 10.807 23.0714 11.0832V23.0312C23.0714 23.2439 22.8642 23.5 22.5 23.5H2.5C2.13583 23.5 1.92857 23.2439 1.92857 23.0312V11.0832C1.92857 10.807 1.70471 10.5832 1.42857 10.5832H1.07143C0.707263 10.5832 0.5 10.3271 0.5 10.1144V6.23933C0.5 6.02663 0.707262 5.77057 1.07143 5.77057H5.16807ZM13.9715 4.76571C13.8642 4.93256 13.8656 5.1471 13.9752 5.31247C14.0849 5.47785 14.2819 5.56277 14.4774 5.5289C15.777 5.30375 17.159 4.93898 18.2052 4.45772C18.6281 4.26315 18.9514 4.06972 19.1903 3.88603C19.4207 3.70883 19.6042 3.51664 19.7031 3.31322C19.7376 3.2422 19.7712 3.1515 19.7807 3.04253C19.7903 2.93173 19.7721 2.83566 19.7483 2.75817C19.6863 2.55664 19.5319 2.31421 19.2204 2.03258C18.9283 1.76841 18.6445 1.59974 18.3616 1.51166C18.0745 1.42225 17.8186 1.42538 17.6001 1.46158C17.0666 1.54997 16.4778 1.88543 15.8686 2.43623C15.1528 3.08343 14.5016 3.94182 13.9715 4.76571ZM10.5226 5.5289C10.7181 5.56277 10.9151 5.47785 11.0247 5.31247C11.1343 5.14709 11.1358 4.93255 11.0285 4.7657C10.4984 3.94182 9.8471 3.08344 9.13131 2.43624C8.52213 1.88543 7.93329 1.54998 7.39977 1.46158C7.18129 1.42538 6.92538 1.42225 6.63822 1.51166C6.35536 1.59974 6.07157 1.76841 5.77941 2.03258C5.46793 2.31421 5.3136 2.55663 5.25159 2.75818C5.22775 2.83566 5.20955 2.93172 5.21919 3.04252C5.22866 3.15149 5.26228 3.24219 5.2968 3.31321C5.39567 3.51663 5.57914 3.70882 5.80958 3.88603C6.04846 4.06972 6.37176 4.26315 6.79474 4.45772C7.84091 4.93898 9.22293 5.30375 10.5226 5.5289ZM22.8571 9.64562C23.1333 9.64562 23.3571 9.42177 23.3571 9.14562V7.2081C23.3571 6.93195 23.1333 6.7081 22.8571 6.7081H2.14286C1.86671 6.7081 1.64286 6.93195 1.64286 7.2081V9.14562C1.64286 9.42177 1.86671 9.64562 2.14286 9.64562H22.8571ZM3.57143 10.5832C3.29529 10.5832 3.07143 10.807 3.07143 11.0832V22.0625C3.07143 22.3386 3.29529 22.5625 3.57143 22.5625H21.4286C21.7047 22.5625 21.9286 22.3386 21.9286 22.0625V11.0832C21.9286 10.807 21.7047 10.5832 21.4286 10.5832H3.57143Z" stroke="#44FF02" stroke-opacity="0.42" stroke-linecap="round" stroke-linejoin="round"/>
</svg>
