<svg width="25" height="24" viewBox="0 0 25 24" fill="none" xmlns="http://www.w3.org/2000/svg">
<path d="M5.71011 1.99244C5.61787 1.87853 5.50144 1.78477 5.36855 1.71738C5.23566 1.64999 5.08936 1.61051 4.93936 1.60158C4.78936 1.59264 4.63909 1.61444 4.49854 1.66554C4.35799 1.71664 4.23038 1.79586 4.12417 1.89794L2.50855 3.45044C1.75386 4.17644 1.47574 5.20394 1.80542 6.10544C3.17377 9.83682 5.39963 13.2246 8.31792 16.0174C11.2272 18.819 14.7561 20.9558 18.6429 22.2694C19.582 22.5859 20.6523 22.3189 21.4085 21.5944L23.0242 20.0434C23.1305 19.9415 23.213 19.819 23.2663 19.684C23.3195 19.5491 23.3422 19.4049 23.3329 19.2609C23.3236 19.1169 23.2825 18.9764 23.2123 18.8488C23.1421 18.7213 23.0444 18.6095 22.9257 18.5209L19.321 15.8299C19.1943 15.7356 19.0468 15.67 18.8899 15.6383C18.7329 15.6066 18.5704 15.6096 18.4148 15.6469L14.9929 16.4674C14.5362 16.577 14.0576 16.5712 13.6039 16.4506C13.1502 16.3299 12.7368 16.0985 12.4039 15.7789L8.56636 12.0934C8.23319 11.774 7.99187 11.3772 7.86591 10.9416C7.73995 10.506 7.73365 10.0466 7.84761 9.60794L8.70386 6.32294C8.74278 6.17354 8.74584 6.0176 8.71282 5.86689C8.6798 5.71618 8.61155 5.57464 8.51324 5.45294L5.71011 1.99244ZM2.94449 0.766942C3.21792 0.504367 3.5464 0.300638 3.90814 0.169284C4.26988 0.0379306 4.65658 -0.0180424 5.04258 0.00508205C5.42858 0.0282065 5.80504 0.129899 6.14696 0.303408C6.48888 0.476916 6.78843 0.71827 7.02574 1.01144L9.82886 4.47044C10.3429 5.10494 10.5242 5.93144 10.321 6.71144L9.46636 9.99644C9.42217 10.1666 9.42456 10.3448 9.47329 10.5138C9.52202 10.6828 9.61545 10.8368 9.74449 10.9609L13.5835 14.6464C13.713 14.7706 13.8737 14.8604 14.05 14.9072C14.2264 14.954 14.4123 14.9561 14.5898 14.9134L18.0101 14.0929C18.4111 13.9967 18.8296 13.9892 19.234 14.0711C19.6384 14.1529 20.0181 14.322 20.3445 14.5654L23.9476 17.2564C25.2429 18.2239 25.3617 20.0614 24.2023 21.1729L22.5867 22.7239C21.4304 23.8339 19.7023 24.3214 18.0914 23.7769C13.9682 22.3842 10.2246 20.1182 7.13824 17.1469C4.04337 14.1845 1.68294 10.5911 0.231986 6.63344C-0.333639 5.08844 0.174173 3.42794 1.33042 2.31794L2.94605 0.766942H2.94449Z" fill="#F60F0F"/>
</svg>
