<svg width="17" height="19" viewBox="0 0 17 19" fill="none" xmlns="http://www.w3.org/2000/svg">
<path d="M4.95825 9.63954C4.95825 9.48669 5.03288 9.34011 5.16572 9.23203C5.29856 9.12395 5.47872 9.06323 5.66659 9.06323H11.3333C11.5211 9.06323 11.7013 9.12395 11.8341 9.23203C11.967 9.34011 12.0416 9.48669 12.0416 9.63954C12.0416 9.79238 11.967 9.93897 11.8341 10.047C11.7013 10.1551 11.5211 10.2158 11.3333 10.2158H5.66659C5.47872 10.2158 5.29856 10.1551 5.16572 10.047C5.03288 9.93897 4.95825 9.79238 4.95825 9.63954Z" fill="#828282"/>
<path d="M2.83333 0.418701C2.08189 0.418701 1.36122 0.661571 0.829864 1.09388C0.298511 1.52619 0 2.11253 0 2.72391V16.5552C0 17.1666 0.298511 17.7529 0.829864 18.1852C1.36122 18.6175 2.08189 18.8604 2.83333 18.8604H14.1667C14.9181 18.8604 15.6388 18.6175 16.1701 18.1852C16.7015 17.7529 17 17.1666 17 16.5552V2.72391C17 2.11253 16.7015 1.52619 16.1701 1.09388C15.6388 0.661571 14.9181 0.418701 14.1667 0.418701L2.83333 0.418701ZM2.83333 1.57131H14.1667C14.5424 1.57131 14.9027 1.69274 15.1684 1.9089C15.4341 2.12505 15.5833 2.41822 15.5833 2.72391V16.5552C15.5833 16.8609 15.4341 17.154 15.1684 17.3702C14.9027 17.5863 14.5424 17.7078 14.1667 17.7078H2.83333C2.45761 17.7078 2.09728 17.5863 1.8316 17.3702C1.56592 17.154 1.41667 16.8609 1.41667 16.5552V2.72391C1.41667 2.41822 1.56592 2.12505 1.8316 1.9089C2.09728 1.69274 2.45761 1.57131 2.83333 1.57131Z" fill="#828282"/>
</svg>
